<svg width="43" height="42" viewBox="0 0 43 42" fill="none" xmlns="http://www.w3.org/2000/svg">
<g clip-path="url(#clip0_6_158)">
<path d="M31.2484 0H11.7516C5.26135 0 0 5.18732 0 11.5862V30.4138C0 36.8127 5.26135 42 11.7516 42H31.2484C37.7386 42 43 36.8127 43 30.4138V11.5862C43 5.18732 37.7386 0 31.2484 0Z" fill="#F3442C"/>
<path d="M24.5714 31.9937C24.5714 31.9937 19.6304 33.9686 14.5559 30.8746C9.48134 27.7805 8.41302 21.0658 9.41457 17.3135C10.4161 13.5611 14.3524 8.3605 20.632 8.3605C26.9116 8.3605 30.0022 11.9161 32.0497 15.931C34.6955 21.1193 33.5854 32.9153 33.5854 32.9153C33.5854 32.9153 31.1817 31.6646 29.7127 31.1379C28.2438 30.6113 24.5714 31.9937 24.5714 31.9937Z" fill="white"/>
</g>
<defs>
<clipPath id="clip0_6_158">
<rect width="43" height="42" fill="white"/>
</clipPath>
</defs>
</svg>
